<svg width="512" height="512" viewBox="0 0 512 512" xmlns="http://www.w3.org/2000/svg">
  <defs>
    <linearGradient id="am-bg" x1="0" y1="0" x2="512" y2="512" gradientUnits="userSpaceOnUse">
      <stop stop-color="#0c1526"/>
      <stop offset="1" stop-color="#151f38"/>
    </linearGradient>
    <linearGradient id="am-heat" x1="256" y1="96" x2="256" y2="452" gradientUnits="userSpaceOnUse">
      <stop stop-color="#3b82f6"/>
      <stop offset="0.26" stop-color="#22d3ee"/>
      <stop offset="0.48" stop-color="#22c55e"/>
      <stop offset="0.66" stop-color="#eab308"/>
      <stop offset="0.84" stop-color="#f97316"/>
      <stop offset="1" stop-color="#ef4444"/>
    </linearGradient>
    <radialGradient id="am-glow" cx="0.5" cy="0.58" r="0.55">
      <stop stop-color="#f97316" stop-opacity="0.34"/>
      <stop offset="1" stop-color="#f97316" stop-opacity="0"/>
    </radialGradient>
  </defs>

  <rect width="512" height="512" rx="120" fill="url(#am-bg)"/>
  <ellipse cx="256" cy="286" rx="200" ry="196" fill="url(#am-glow)"/>

  <!-- FIGURA MASCULINA (esquerda) -->
  <g stroke="url(#am-heat)" fill="none" stroke-linecap="round" stroke-linejoin="round">
    <path d="M156 214 L124 316" stroke-width="21"/>
    <path d="M196 214 L228 316" stroke-width="21"/>
    <path d="M167 300 L160 412" stroke-width="24"/>
    <path d="M185 300 L192 412" stroke-width="24"/>
  </g>
  <g fill="url(#am-heat)">
    <circle cx="176" cy="150" r="33"/>
    <path d="M176 188 c 30 0 46 15 46 40 l 0 56 c 0 24 -21 38 -46 38
             c -25 0 -46 -14 -46 -38 l 0 -56 c 0 -25 16 -40 46 -40 Z"/>
  </g>

  <!-- FIGURA FEMININA (direita), vestido em A -->
  <g stroke="url(#am-heat)" fill="none" stroke-linecap="round" stroke-linejoin="round">
    <path d="M316 214 L292 314" stroke-width="19"/>
    <path d="M356 214 L380 314" stroke-width="19"/>
    <path d="M330 318 L326 412" stroke-width="20"/>
    <path d="M346 318 L350 412" stroke-width="20"/>
  </g>
  <g fill="url(#am-heat)">
    <circle cx="336" cy="150" r="33"/>
    <path d="M336 186
             c 24 0 37 12 39 30
             c 3 26 12 66 27 100
             c 4 9 -3 16 -13 16
             l -106 0
             c -10 0 -17 -7 -13 -16
             c 15 -34 24 -74 27 -100
             c 2 -18 15 -30 39 -30 Z"/>
  </g>

  <!-- brilho quente nas maos e pes -->
  <g fill="#fef3c7" opacity="0.9">
    <circle cx="124" cy="316" r="13"/>
    <circle cx="228" cy="316" r="13"/>
    <circle cx="160" cy="412" r="14"/>
    <circle cx="192" cy="412" r="14"/>
    <circle cx="292" cy="314" r="12"/>
    <circle cx="380" cy="314" r="12"/>
    <circle cx="326" cy="412" r="13"/>
    <circle cx="350" cy="412" r="13"/>
  </g>
</svg>
